<?xml version="1.0" encoding="iso-8859-1"?>
<!-- Uploaded to: SVG Repo, www.svgrepo.com, Generator: SVG Repo Mixer Tools -->
<svg fill="#000000" height="800px" width="800px" version="1.1" id="Layer_1" xmlns="http://www.w3.org/2000/svg" xmlns:xlink="http://www.w3.org/1999/xlink" 
	 viewBox="0 0 511.999 511.999" xml:space="preserve">
<g>
	<g>
		<path d="M451.457,61.471c-23.052-31.429-65.094-48.74-118.382-48.74H214.739c-53.287,0-95.329,17.309-118.381,48.74
			C76.154,89.017,71.825,125.77,84.169,164.957c7.796,24.75,15.312,48.627,20.158,73.601c8.781-7.125,17.983-13.675,27.547-19.619
			c-5.048-21.913-11.623-42.797-18.086-63.314c-9.43-29.935-6.798-56.142,7.611-75.788c17.052-23.248,50.2-36.051,93.339-36.051
			h118.337c43.14,0,76.289,12.803,93.34,36.051c14.408,19.646,17.04,45.852,7.611,75.788c-6.45,20.476-13.012,41.319-18.055,63.184
			c9.53,5.945,18.725,12.509,27.531,19.681c4.846-24.95,12.356-48.807,20.145-73.534C475.99,125.771,471.661,89.018,451.457,61.471z
			"/>
	</g>
</g>
<g>
	<g>
		<path d="M442.264,279.151c-10.17-10.17-21.104-19.295-32.662-27.344c-31.899,39.761-80.869,65.269-135.694,65.269
			c-54.792,0-103.737-25.477-135.638-65.199c-19.977,13.85-37.937,30.804-53.091,50.484l-49.526-20.513L0,367.921l43.83,18.154
			c-5.323,19.968-8.014,40.57-8.014,61.433v51.759h476.184v-51.759C511.999,383.911,487.233,324.122,442.264,279.151z"/>
	</g>
</g>
<g>
	<g>
		<path d="M289.436,209.929v-31.568h31.055v-31.055h-93.166v31.055h31.055v31.58c-32.846,2.146-64.506,11.063-93.185,25.792
			c26.223,30.75,65.227,50.287,108.713,50.287c43.54,0,82.585-19.585,108.808-50.401
			C353.962,220.813,322.345,212.033,289.436,209.929z"/>
	</g>
</g>
</svg>